<?xml version="1.0" standalone="no"?>
<!DOCTYPE svg PUBLIC "-//W3C//DTD SVG 20010904//EN"
 "http://www.w3.org/TR/2001/REC-SVG-20010904/DTD/svg10.dtd">
<svg version="1.0" xmlns="http://www.w3.org/2000/svg"
 width="512.000000pt" height="512.000000pt" viewBox="0 0 512.000000 512.000000"
 preserveAspectRatio="xMidYMid meet">

<g transform="translate(0.000000,512.000000) scale(0.100000,-0.100000)"
fill="#000000" stroke="none">
<path d="M117 5045 c-92 -32 -117 -84 -117 -242 0 -136 16 -184 71 -224 l34
-24 1240 -2 1240 -3 39 23 c25 14 48 39 63 66 20 39 23 58 23 160 0 101 -3
123 -22 161 -27 52 -60 78 -114 90 -22 6 -549 9 -1229 9 -982 0 -1197 -2
-1228 -14z"/>
<path d="M3720 4959 c-33 -13 -68 -47 -88 -84 -16 -28 -17 -186 -20 -1965 l-2
-1934 -303 301 c-166 166 -315 307 -330 312 -36 14 -98 14 -133 1 -40 -16
-184 -159 -205 -205 -23 -49 -24 -97 -4 -139 8 -17 270 -286 583 -598 503
-503 572 -568 610 -578 95 -25 70 -45 694 578 313 312 575 581 583 598 20 42
19 90 -4 139 -21 46 -165 189 -205 205 -35 13 -97 13 -133 -1 -15 -5 -164
-146 -330 -312 l-303 -302 0 1905 c-1 1048 -5 1925 -9 1949 -10 48 -33 84 -75
115 -24 19 -44 21 -164 23 -77 2 -148 -2 -162 -8z"/>
<path d="M131 3980 c-49 -12 -83 -40 -108 -90 -20 -38 -23 -59 -23 -160 0
-133 16 -182 71 -221 l34 -24 1090 0 1090 0 34 24 c55 39 71 88 71 221 0 101
-3 122 -22 160 -27 52 -60 78 -114 90 -48 12 -2075 11 -2123 0z"/>
<path d="M95 2896 c-72 -32 -95 -90 -95 -239 0 -97 3 -119 22 -157 31 -60 74
-87 151 -95 34 -3 447 -5 917 -3 955 3 889 -2 947 75 27 35 28 41 31 172 2
126 1 139 -20 176 -13 22 -39 50 -57 62 l-34 23 -916 0 c-738 -1 -922 -3 -946
-14z"/>
<path d="M137 1721 c-52 -11 -88 -39 -115 -91 -19 -38 -22 -60 -22 -160 0
-100 3 -122 23 -160 30 -60 73 -87 150 -95 34 -3 375 -5 757 -3 776 3 729 -1
787 75 28 36 28 38 28 183 0 145 0 147 -28 183 -58 76 -7 72 -817 74 -399 0
-742 -2 -763 -6z"/>
<path d="M110 643 c-37 -14 -74 -49 -91 -87 -15 -32 -19 -66 -19 -156 0 -101
3 -122 22 -160 27 -52 60 -78 114 -90 51 -12 1107 -12 1158 0 45 10 81 34 110
74 19 25 21 42 21 176 0 162 -4 176 -69 224 -27 21 -38 21 -629 23 -331 1
-609 -1 -617 -4z"/>
</g>
</svg>
