<svg width="485" height="485" xmlns="http://www.w3.org/2000/svg" xml:space="preserve" version="1.1">
 <g>
  <title>Layer 1</title>
  <g id="svg_1">
   <g id="svg_2">
    <path id="svg_3" fill="#AFB6BB" d="m152.5,447.5l20,0l140,0l20,0c5.5,0 10,4.5 10,10l0,10l0,10l-200,0l0,-10l0,-10c0,-5.5 4.5,-10 10,-10z"/>
    <rect id="svg_4" fill="#E7ECED" height="70" width="140" y="377.5" x="172.5"/>
    <path id="svg_5" fill="#31C0D8" d="m477.5,17.5l0,270l-470,0l0,-270c0,-5.5 4.5,-10 10,-10l450,0c5.5,0 10,4.5 10,10z"/>
    <path id="svg_6" fill="#AFB6BB" d="m477.5,287.5l0,80c0,5.5 -4.5,10 -10,10l-155,0l-140,0l-155,0c-5.5,0 -10,-4.5 -10,-10l0,-80l470,0z"/>
   </g>
   <g id="XMLID_42_">
    <g id="svg_7">
     <path id="svg_8" fill="#E7ECED" d="m242.5,312.5c11,0 20,9 20,20s-9,20 -20,20s-20,-9 -20,-20s9,-20 20,-20z"/>
    </g>
    <g id="svg_9">
     <path id="svg_10" fill="#231F20" d="m467.5,0l-450,0c-9.649,0 -17.5,7.851 -17.5,17.5l0,350c0,9.649 7.851,17.5 17.5,17.5l147.5,0l0,55l-12.5,0c-9.649,0 -17.5,7.851 -17.5,17.5l0,27.5l215,0l0,-27.5c0,-9.649 -7.851,-17.5 -17.5,-17.5l-12.5,0l0,-55l147.5,0c9.649,0 17.5,-7.851 17.5,-17.5l0,-350c0,-9.649 -7.851,-17.5 -17.5,-17.5zm-450,15l450,0c1.355,0 2.5,1.145 2.5,2.5l0,262.5l-455,0l0,-262.5c0,-1.355 1.145,-2.5 2.5,-2.5zm317.5,442.5l0,12.5l-185,0l0,-12.5c0,-1.355 1.145,-2.5 2.5,-2.5l180,0c1.355,0 2.5,1.145 2.5,2.5zm-155,-17.5l0,-55l125,0l0,55l-125,0zm287.5,-70l-450,0c-1.355,0 -2.5,-1.145 -2.5,-2.5l0,-72.5l455,0l0,72.5c0,1.355 -1.145,2.5 -2.5,2.5z"/>
     <path id="svg_11" fill="#231F20" d="m242.5,305c-15.163,0 -27.5,12.336 -27.5,27.5s12.337,27.5 27.5,27.5s27.5,-12.336 27.5,-27.5s-12.337,-27.5 -27.5,-27.5zm0,40c-6.893,0 -12.5,-5.607 -12.5,-12.5s5.607,-12.5 12.5,-12.5s12.5,5.607 12.5,12.5s-5.607,12.5 -12.5,12.5z"/>
    </g>
   </g>
  </g>
  <g id="svg_12"/>
  <g id="svg_13"/>
  <g id="svg_14"/>
  <g id="svg_15"/>
  <g id="svg_16"/>
  <g id="svg_17"/>
  <g id="svg_18"/>
  <g id="svg_19"/>
  <g id="svg_20"/>
  <g id="svg_21"/>
  <g id="svg_22"/>
  <g id="svg_23"/>
  <g id="svg_24"/>
  <g id="svg_25"/>
  <g id="svg_26"/>
  <rect fill="#ffffff" stroke="#000" x="15.5" y="15.3" width="454" height="265" id="svg_27"/>
  <rect id="svg_29" height="265" width="452" y="15.5" x="16.5" stroke="#000" fill="#444444"/>
 </g>

</svg>