<?xml version="1.0" standalone="no"?>
<!DOCTYPE svg PUBLIC "-//W3C//DTD SVG 20010904//EN"
 "http://www.w3.org/TR/2001/REC-SVG-20010904/DTD/svg10.dtd">
<svg version="1.0" xmlns="http://www.w3.org/2000/svg"
 width="512.000000pt" height="512.000000pt" viewBox="0 0 512.000000 512.000000"
 preserveAspectRatio="xMidYMid meet">

<g transform="translate(0.000000,512.000000) scale(0.100000,-0.100000)"
fill="#000000" stroke="none">
<path d="M117 5045 c-92 -32 -117 -84 -117 -242 0 -136 16 -184 71 -224 l34
-24 597 -3 c664 -3 642 -5 694 64 28 36 29 42 32 163 2 73 -1 141 -7 162 -14
45 -67 94 -118 108 -25 7 -235 11 -593 11 -444 -1 -563 -4 -593 -15z"/>
<path d="M3720 4959 c-33 -13 -68 -47 -88 -84 -16 -28 -17 -186 -20 -1965 l-2
-1934 -303 301 c-166 166 -315 307 -330 312 -36 14 -98 14 -133 1 -40 -16
-184 -159 -205 -205 -23 -49 -24 -97 -4 -139 8 -17 270 -286 583 -598 503
-503 572 -568 610 -578 95 -25 70 -45 694 578 313 312 575 581 583 598 20 42
19 90 -4 139 -21 46 -165 189 -205 205 -35 13 -97 13 -133 -1 -15 -5 -164
-146 -330 -312 l-303 -302 0 1905 c-1 1048 -5 1925 -9 1949 -10 48 -33 84 -75
115 -24 19 -44 21 -164 23 -77 2 -148 -2 -162 -8z"/>
<path d="M131 3980 c-49 -12 -83 -40 -108 -90 -20 -38 -23 -59 -23 -160 0
-133 16 -182 71 -221 l34 -24 757 -3 c840 -3 801 -6 854 64 29 37 29 38 29
185 0 133 -2 150 -21 175 -29 40 -65 64 -110 74 -48 12 -1435 11 -1483 0z"/>
<path d="M131 2790 c-49 -12 -83 -40 -108 -90 -20 -38 -23 -59 -23 -160 0
-133 16 -182 71 -221 l34 -24 931 0 931 0 35 27 c57 43 70 92 66 240 -3 119
-4 126 -31 161 -59 77 13 72 -982 74 -490 0 -905 -2 -924 -7z"/>
<path d="M137 1720 c-52 -10 -88 -38 -115 -90 -19 -38 -22 -60 -22 -160 0
-100 3 -122 23 -160 27 -54 61 -80 118 -91 64 -12 2034 -11 2100 1 68 13 98
34 126 90 20 38 23 60 23 160 0 100 -3 122 -22 160 -29 56 -59 77 -127 90 -62
12 -2044 12 -2104 0z"/>
<path d="M110 643 c-37 -14 -74 -49 -91 -87 -15 -32 -19 -66 -19 -156 0 -101
3 -122 22 -160 27 -52 60 -78 114 -90 52 -12 2386 -12 2438 0 54 12 87 38 114
91 21 40 23 55 20 170 -3 117 -5 128 -30 166 -52 79 52 73 -1325 72 -675 0
-1235 -3 -1243 -6z"/>
</g>
</svg>
