<svg width="485" height="485" xmlns="http://www.w3.org/2000/svg" version="1.1" xml:space="preserve">
 <g>
  <title>Layer 1</title>
  <g id="svg_1">
   <g id="svg_2">
    <path d="m152.5,447.5l20,0l140,0l20,0c5.5,0 10,4.5 10,10l0,10l0,10l-200,0l0,-10l0,-10c0,-5.5 4.5,-10 10,-10z" fill="#AFB6BB" id="svg_3"/>
    <rect x="172.5" y="377.5" width="140" height="70" fill="#E7ECED" id="svg_4"/>
    <path d="m477.5,17.5l0,270l-470,0l0,-270c0,-5.5 4.5,-10 10,-10l450,0c5.5,0 10,4.5 10,10z" fill="#31C0D8" id="svg_5"/>
    <path d="m477.5,287.5l0,80c0,5.5 -4.5,10 -10,10l-155,0l-140,0l-155,0c-5.5,0 -10,-4.5 -10,-10l0,-80l470,0z" fill="#AFB6BB" id="svg_6"/>
   </g>
   <g id="XMLID_42_">
    <g id="svg_7">
     <path d="m242.5,312.5c11,0 20,9 20,20s-9,20 -20,20s-20,-9 -20,-20s9,-20 20,-20z" fill="#E7ECED" id="svg_8"/>
    </g>
    <g id="svg_9">
     <path d="m467.5,0l-450,0c-9.649,0 -17.5,7.851 -17.5,17.5l0,350c0,9.649 7.851,17.5 17.5,17.5l147.5,0l0,55l-12.5,0c-9.649,0 -17.5,7.851 -17.5,17.5l0,27.5l215,0l0,-27.5c0,-9.649 -7.851,-17.5 -17.5,-17.5l-12.5,0l0,-55l147.5,0c9.649,0 17.5,-7.851 17.5,-17.5l0,-350c0,-9.649 -7.851,-17.5 -17.5,-17.5zm-450,15l450,0c1.355,0 2.5,1.145 2.5,2.5l0,262.5l-455,0l0,-262.5c0,-1.355 1.145,-2.5 2.5,-2.5zm317.5,442.5l0,12.5l-185,0l0,-12.5c0,-1.355 1.145,-2.5 2.5,-2.5l180,0c1.355,0 2.5,1.145 2.5,2.5zm-155,-17.5l0,-55l125,0l0,55l-125,0zm287.5,-70l-450,0c-1.355,0 -2.5,-1.145 -2.5,-2.5l0,-72.5l455,0l0,72.5c0,1.355 -1.145,2.5 -2.5,2.5z" fill="#231F20" id="svg_10"/>
     <path d="m242.5,305c-15.163,0 -27.5,12.336 -27.5,27.5s12.337,27.5 27.5,27.5s27.5,-12.336 27.5,-27.5s-12.337,-27.5 -27.5,-27.5zm0,40c-6.893,0 -12.5,-5.607 -12.5,-12.5s5.607,-12.5 12.5,-12.5s12.5,5.607 12.5,12.5s-5.607,12.5 -12.5,12.5z" fill="#231F20" id="svg_11"/>
    </g>
   </g>
  </g>
  <g id="svg_12"/>
  <g id="svg_13"/>
  <g id="svg_14"/>
  <g id="svg_15"/>
  <g id="svg_16"/>
  <g id="svg_17"/>
  <g id="svg_18"/>
  <g id="svg_19"/>
  <g id="svg_20"/>
  <g id="svg_21"/>
  <g id="svg_22"/>
  <g id="svg_23"/>
  <g id="svg_24"/>
  <g id="svg_25"/>
  <g id="svg_26"/>
  <rect id="svg_27" height="265" width="454" y="15.3" x="15.5" stroke="#000" fill="#ffffff"/>
  <rect fill="#444444" stroke="#894F3F" x="16.5" y="15.5" width="452" height="265" id="svg_29"/>
  <ellipse ry="85.5" rx="88.5" id="svg_45" cy="155.6" cx="243" stroke="#444444" fill="#CC7C65"/>
  <ellipse ry="62.5" rx="60.5" id="svg_46" cy="155.6" cx="242" stroke="#444444" fill="#444444"/>
  <rect stroke-width="0" rx="15" id="svg_51" height="82" width="30" y="46.1" x="228.5" stroke="#444444" fill="#CC7C65"/>
  <rect id="svg_54" height="57" width="18" y="63.9" x="259.5" stroke="#444444" fill="#444444"/>
  <rect id="svg_55" height="59" width="18" y="61.9" x="210" stroke="#444444" fill="#444444"/>
  <rect stroke-width="0" id="svg_56" height="56.53846" width="12.69231" y="65.88462" x="259" stroke="#000" fill="#444444"/>
  <line id="svg_67" y2="63.27464" x2="259.23624" y1="99.92039" x1="258.92569" stroke="#444444" fill="none"/>
  <ellipse ry="13.50924" rx="5.74531" id="svg_77" cy="91.06951" cx="278.95663" stroke-width="0" stroke="#444444" fill="#CC7C65"/>
  <ellipse ry="12.73285" rx="6.5217" id="svg_79" cy="89.672" cx="207.9943" stroke-width="0" stroke="#444444" fill="#CC7C65"/>
  <line id="svg_82" y2="74.14414" x2="214.516" y1="79.73417" x1="201.78316" stroke="#444444" fill="none"/>
  <line id="svg_83" y2="74.14414" x2="270.72686" y1="81.59751" x1="289.36029" stroke="#444444" fill="none"/>
 </g>

</svg>